<?xml version="1.0"?>
<svg width="250mm" height="200mm" viewBox="0 0   4100    1500"
     xmlns="http://www.w3.org/2000/svg"
     xmlns:xlink="http://www.w3.org/1999/xlink"
     xmlns:ev="http://www.w3.org/2001/xml-events">
<g font-family="Verdana" font-size="8" >
  <line x1="  3100" y1="   710" x2="  2700" y2="    30" style = "stroke:silver  ;"/>
  <line x1="  3100" y1="   750" x2="  2700" y2="    70" style = "stroke:silver  ;"/>
  <line x1="  3100" y1="   790" x2="  2700" y2="   110" style = "stroke:silver  ;"/>
  <line x1="  3100" y1="   830" x2="  2700" y2="   150" style = "stroke:silver  ;"/>
  <line x1="  3100" y1="   870" x2="  2700" y2="   190" style = "stroke:silver  ;"/>
  <line x1="  3100" y1="   910" x2="  2700" y2="   230" style = "stroke:silver  ;"/>
  <line x1="  3100" y1="   950" x2="  2700" y2="   270" style = "stroke:silver  ;"/>
  <line x1="  3100" y1="   990" x2="  2700" y2="   310" style = "stroke:silver  ;"/>
  <line x1="  3100" y1="  1030" x2="  2700" y2="   350" style = "stroke:silver  ;"/>
  <line x1="  3100" y1="  1070" x2="  2700" y2="   390" style = "stroke:silver  ;"/>
  <line x1="  3100" y1="  1110" x2="  2700" y2="   430" style = "stroke:silver  ;"/>
  <line x1="  3100" y1="  1150" x2="  2700" y2="   470" style = "stroke:silver  ;"/>
  <line x1="  3100" y1="  1190" x2="  2700" y2="   510" style = "stroke:silver  ;"/>
  <line x1="  3100" y1="  1230" x2="  2700" y2="   550" style = "stroke:silver  ;"/>
  <line x1="  3100" y1="  1270" x2="  2700" y2="   590" style = "stroke:silver  ;"/>
  <line x1="  3100" y1="  1310" x2="  1100" y2="    30" style = "stroke:silver  ;"/>
  <rect x="   200" y="  1420" width="   200" height="    20" style = "fill:snow; stroke: Black;"/>     1
  <text x="   202" y="  1433">OutdoorAir:NodeList</text>
  <rect x="  2600" y="   700" width="   200" height="    20" style = "fill:wheat; stroke: Black;"/>     8
  <text x="  2602" y="   713">HEATSYS1 DEMAND SPLITTER</text>
  <rect x="  3400" y="  1340" width="   200" height="    20" style = "fill:wheat; stroke: Black;"/>     9
  <text x="  3402" y="  1353">HEATSYS1 DEMAND MIXER</text>
  <rect x="   600" y="   660" width="   200" height="    20" style = "fill:wheat; stroke: Black;"/>    10
  <text x="   602" y="   673">HEATSYS1 SUPPLY SPLITTER</text>
  <rect x="  1400" y="   700" width="   200" height="    20" style = "fill:wheat; stroke: Black;"/>    11
  <text x="  1402" y="   713">HEATSYS1 SUPPLY MIXER</text>
  <rect x="  3000" y="    20" width="   200" height="    20" style = "fill:chartreuse; stroke: Black;"/>    12
  <text x="  3002" y="    33">ZN_1_FLR_1_SEC_1</text>
  <rect x="  1800" y="    20" width="   200" height="    20" style = "fill:wheat; stroke: Black;"/>    27
  <text x="  1802" y="    33">PVAV_REHEAT_1 SUPPLY AIR SPLITTER</text>
  <rect x="  2200" y="    20" width="   200" height="    20" style = "fill:wheat; stroke: Black;"/>    28
  <text x="  2202" y="    33">ZN_1_FLR_1_SEC_1 VAV BOX COMPONENT</text>
  <rect x="  3000" y="   700" width="   200" height="    20" style = "fill:salmon; stroke: Black;"/>    29
  <text x="  3002" y="   713">ZN_1_FLR_1_SEC_1 VAV BOX REHEAT COIL</text>
  <rect x="  2600" y="    20" width="   200" height="    20" style = "fill:salmon; stroke: Black;"/>    30
  <text x="  2602" y="    33">ZN_1_FLR_1_SEC_1 VAV BOX REHEAT COIL</text>
  <rect x="  3000" y="   740" width="   200" height="    20" style = "fill:salmon; stroke: Black;"/>    31
  <text x="  3002" y="   753">ZN_1_FLR_2_SEC_1 VAV BOX REHEAT COIL</text>
  <rect x="  2600" y="    60" width="   200" height="    20" style = "fill:salmon; stroke: Black;"/>    32
  <text x="  2602" y="    73">ZN_1_FLR_2_SEC_1 VAV BOX REHEAT COIL</text>
  <rect x="  3000" y="   780" width="   200" height="    20" style = "fill:salmon; stroke: Black;"/>    33
  <text x="  3002" y="   793">ZN_1_FLR_3_SEC_1 VAV BOX REHEAT COIL</text>
  <rect x="  2600" y="   100" width="   200" height="    20" style = "fill:salmon; stroke: Black;"/>    34
  <text x="  2602" y="   113">ZN_1_FLR_3_SEC_1 VAV BOX REHEAT COIL</text>
  <rect x="  3000" y="   820" width="   200" height="    20" style = "fill:salmon; stroke: Black;"/>    35
  <text x="  3002" y="   833">ZN_1_FLR_1_SEC_2 VAV BOX REHEAT COIL</text>
  <rect x="  2600" y="   140" width="   200" height="    20" style = "fill:salmon; stroke: Black;"/>    36
  <text x="  2602" y="   153">ZN_1_FLR_1_SEC_2 VAV BOX REHEAT COIL</text>
  <rect x="  3000" y="   860" width="   200" height="    20" style = "fill:salmon; stroke: Black;"/>    37
  <text x="  3002" y="   873">ZN_1_FLR_2_SEC_2 VAV BOX REHEAT COIL</text>
  <rect x="  2600" y="   180" width="   200" height="    20" style = "fill:salmon; stroke: Black;"/>    38
  <text x="  2602" y="   193">ZN_1_FLR_2_SEC_2 VAV BOX REHEAT COIL</text>
  <rect x="  3000" y="   900" width="   200" height="    20" style = "fill:salmon; stroke: Black;"/>    39
  <text x="  3002" y="   913">ZN_1_FLR_3_SEC_2 VAV BOX REHEAT COIL</text>
  <rect x="  2600" y="   220" width="   200" height="    20" style = "fill:salmon; stroke: Black;"/>    40
  <text x="  2602" y="   233">ZN_1_FLR_3_SEC_2 VAV BOX REHEAT COIL</text>
  <rect x="  3000" y="   940" width="   200" height="    20" style = "fill:salmon; stroke: Black;"/>    41
  <text x="  3002" y="   953">ZN_1_FLR_1_SEC_3 VAV BOX REHEAT COIL</text>
  <rect x="  2600" y="   260" width="   200" height="    20" style = "fill:salmon; stroke: Black;"/>    42
  <text x="  2602" y="   273">ZN_1_FLR_1_SEC_3 VAV BOX REHEAT COIL</text>
  <rect x="  3000" y="   980" width="   200" height="    20" style = "fill:salmon; stroke: Black;"/>    43
  <text x="  3002" y="   993">ZN_1_FLR_2_SEC_3 VAV BOX REHEAT COIL</text>
  <rect x="  2600" y="   300" width="   200" height="    20" style = "fill:salmon; stroke: Black;"/>    44
  <text x="  2602" y="   313">ZN_1_FLR_2_SEC_3 VAV BOX REHEAT COIL</text>
  <rect x="  3000" y="  1020" width="   200" height="    20" style = "fill:salmon; stroke: Black;"/>    45
  <text x="  3002" y="  1033">ZN_1_FLR_3_SEC_3 VAV BOX REHEAT COIL</text>
  <rect x="  2600" y="   340" width="   200" height="    20" style = "fill:salmon; stroke: Black;"/>    46
  <text x="  2602" y="   353">ZN_1_FLR_3_SEC_3 VAV BOX REHEAT COIL</text>
  <rect x="  3000" y="  1060" width="   200" height="    20" style = "fill:salmon; stroke: Black;"/>    47
  <text x="  3002" y="  1073">ZN_1_FLR_1_SEC_4 VAV BOX REHEAT COIL</text>
  <rect x="  2600" y="   380" width="   200" height="    20" style = "fill:salmon; stroke: Black;"/>    48
  <text x="  2602" y="   393">ZN_1_FLR_1_SEC_4 VAV BOX REHEAT COIL</text>
  <rect x="  3000" y="  1100" width="   200" height="    20" style = "fill:salmon; stroke: Black;"/>    49
  <text x="  3002" y="  1113">ZN_1_FLR_2_SEC_4 VAV BOX REHEAT COIL</text>
  <rect x="  2600" y="   420" width="   200" height="    20" style = "fill:salmon; stroke: Black;"/>    50
  <text x="  2602" y="   433">ZN_1_FLR_2_SEC_4 VAV BOX REHEAT COIL</text>
  <rect x="  3000" y="  1140" width="   200" height="    20" style = "fill:salmon; stroke: Black;"/>    51
  <text x="  3002" y="  1153">ZN_1_FLR_3_SEC_4 VAV BOX REHEAT COIL</text>
  <rect x="  2600" y="   460" width="   200" height="    20" style = "fill:salmon; stroke: Black;"/>    52
  <text x="  2602" y="   473">ZN_1_FLR_3_SEC_4 VAV BOX REHEAT COIL</text>
  <rect x="  3000" y="  1180" width="   200" height="    20" style = "fill:salmon; stroke: Black;"/>    53
  <text x="  3002" y="  1193">ZN_1_FLR_1_SEC_5 VAV BOX REHEAT COIL</text>
  <rect x="  2600" y="   500" width="   200" height="    20" style = "fill:salmon; stroke: Black;"/>    54
  <text x="  2602" y="   513">ZN_1_FLR_1_SEC_5 VAV BOX REHEAT COIL</text>
  <rect x="  3000" y="  1220" width="   200" height="    20" style = "fill:salmon; stroke: Black;"/>    55
  <text x="  3002" y="  1233">ZN_1_FLR_2_SEC_5 VAV BOX REHEAT COIL</text>
  <rect x="  2600" y="   540" width="   200" height="    20" style = "fill:salmon; stroke: Black;"/>    56
  <text x="  2602" y="   553">ZN_1_FLR_2_SEC_5 VAV BOX REHEAT COIL</text>
  <rect x="  3000" y="  1260" width="   200" height="    20" style = "fill:salmon; stroke: Black;"/>    57
  <text x="  3002" y="  1273">ZN_1_FLR_3_SEC_5 VAV BOX REHEAT COIL</text>
  <rect x="  2600" y="   580" width="   200" height="    20" style = "fill:salmon; stroke: Black;"/>    58
  <text x="  2602" y="   593">ZN_1_FLR_3_SEC_5 VAV BOX REHEAT COIL</text>
  <rect x="  3000" y="  1300" width="   200" height="    20" style = "fill:salmon; stroke: Black;"/>    59
  <text x="  3002" y="  1313">PVAV_REHEAT_1_HEATC 1</text>
  <rect x="  1000" y="    20" width="   200" height="    20" style = "fill:salmon; stroke: Black;"/>    60
  <text x="  1002" y="    33">PVAV_REHEAT_1_HEATC 1</text>
  <rect x="  2200" y="    60" width="   200" height="    20" style = "fill:wheat; stroke: Black;"/>    61
  <text x="  2202" y="    73">ZN_1_FLR_2_SEC_1 VAV BOX COMPONENT</text>
  <rect x="  2200" y="   100" width="   200" height="    20" style = "fill:wheat; stroke: Black;"/>    62
  <text x="  2202" y="   113">ZN_1_FLR_3_SEC_1 VAV BOX COMPONENT</text>
  <rect x="  2200" y="   140" width="   200" height="    20" style = "fill:wheat; stroke: Black;"/>    63
  <text x="  2202" y="   153">ZN_1_FLR_1_SEC_2 VAV BOX COMPONENT</text>
  <rect x="  2200" y="   180" width="   200" height="    20" style = "fill:wheat; stroke: Black;"/>    64
  <text x="  2202" y="   193">ZN_1_FLR_2_SEC_2 VAV BOX COMPONENT</text>
  <rect x="  2200" y="   220" width="   200" height="    20" style = "fill:wheat; stroke: Black;"/>    65
  <text x="  2202" y="   233">ZN_1_FLR_3_SEC_2 VAV BOX COMPONENT</text>
  <rect x="  2200" y="   260" width="   200" height="    20" style = "fill:wheat; stroke: Black;"/>    66
  <text x="  2202" y="   273">ZN_1_FLR_1_SEC_3 VAV BOX COMPONENT</text>
  <rect x="  2200" y="   300" width="   200" height="    20" style = "fill:wheat; stroke: Black;"/>    67
  <text x="  2202" y="   313">ZN_1_FLR_2_SEC_3 VAV BOX COMPONENT</text>
  <rect x="  2200" y="   340" width="   200" height="    20" style = "fill:wheat; stroke: Black;"/>    68
  <text x="  2202" y="   353">ZN_1_FLR_3_SEC_3 VAV BOX COMPONENT</text>
  <rect x="  2200" y="   380" width="   200" height="    20" style = "fill:wheat; stroke: Black;"/>    69
  <text x="  2202" y="   393">ZN_1_FLR_1_SEC_4 VAV BOX COMPONENT</text>
  <rect x="  2200" y="   420" width="   200" height="    20" style = "fill:wheat; stroke: Black;"/>    70
  <text x="  2202" y="   433">ZN_1_FLR_2_SEC_4 VAV BOX COMPONENT</text>
  <rect x="  2200" y="   460" width="   200" height="    20" style = "fill:wheat; stroke: Black;"/>    71
  <text x="  2202" y="   473">ZN_1_FLR_3_SEC_4 VAV BOX COMPONENT</text>
  <rect x="  2200" y="   500" width="   200" height="    20" style = "fill:wheat; stroke: Black;"/>    72
  <text x="  2202" y="   513">ZN_1_FLR_1_SEC_5 VAV BOX COMPONENT</text>
  <rect x="  2200" y="   540" width="   200" height="    20" style = "fill:wheat; stroke: Black;"/>    73
  <text x="  2202" y="   553">ZN_1_FLR_2_SEC_5 VAV BOX COMPONENT</text>
  <rect x="  2200" y="   580" width="   200" height="    20" style = "fill:wheat; stroke: Black;"/>    74
  <text x="  2202" y="   593">ZN_1_FLR_3_SEC_5 VAV BOX COMPONENT</text>
  <rect x="  3400" y="   580" width="   200" height="    20" style = "fill:wheat; stroke: Black;"/>    75
  <text x="  3402" y="   593">PVAV_REHEAT_1 RETURN AIR MIXER</text>
  <rect x="   200" y="    20" width="   200" height="    20" style = "fill:lawngreen; stroke: Black;"/>    76
  <text x="   202" y="    33">PVAV_REHEAT_1_OAMIXING BOX</text>
  <rect x="   600" y="    20" width="   200" height="    20" style = "fill:skyblue; stroke: Black;"/>    79
  <text x="   602" y="    33">PVAV_REHEAT_1_COOLC 1 DXCOIL</text>
  <rect x="  1400" y="    20" width="   200" height="    20" style = "fill:silver; stroke: Black;"/>    80
  <text x="  1402" y="    33">PVAV_REHEAT_1_FAN</text>
  <rect x="  1000" y="   700" width="   200" height="    20" style = "fill:wheat; stroke: Black;"/>    81
  <text  x="  1002" y="   708">HEATSYS1 SUPPLY EQUIPMENT BYPASS
  <tspan x="  1002" y="   716">PIPE</tspan></text>
  <rect x="  1800" y="   700" width="   200" height="    20" style = "fill:wheat; stroke: Black;"/>    82
  <text x="  1802" y="   713">HEATSYS1 SUPPLY OUTLET PIPE</text>
  <rect x="  2200" y="   700" width="   200" height="    20" style = "fill:wheat; stroke: Black;"/>    83
  <text x="  2202" y="   713">HEATSYS1 DEMAND INLET PIPE</text>
  <rect x="  3000" y="  1340" width="   200" height="    20" style = "fill:wheat; stroke: Black;"/>    84
  <text x="  3002" y="  1353">HEATSYS1 DEMAND BYPASS PIPE</text>
  <rect x="  3800" y="  1340" width="   200" height="    20" style = "fill:wheat; stroke: Black;"/>    85
  <text x="  3802" y="  1353">HEATSYS1 DEMAND OUTLET PIPE</text>
  <rect x="  1000" y="   660" width="   200" height="    20" style = "fill:indianred; stroke: Black;"/>    86
  <text x="  1002" y="   673">HEATSYS1 BOILER</text>
  <rect x="   200" y="   660" width="   200" height="    20" style = "fill:springgreen; stroke: Black;"/>    87
  <text x="   202" y="   673">HEATSYS1 PUMP</text>
  <rect x="  3000" y="    60" width="   200" height="    20" style = "fill:chartreuse; stroke: Black;"/>    88
  <text x="  3002" y="    73">ZN_1_FLR_2_SEC_1</text>
  <rect x="  3000" y="   100" width="   200" height="    20" style = "fill:chartreuse; stroke: Black;"/>    89
  <text x="  3002" y="   113">ZN_1_FLR_3_SEC_1</text>
  <rect x="  3000" y="   140" width="   200" height="    20" style = "fill:chartreuse; stroke: Black;"/>    90
  <text x="  3002" y="   153">ZN_1_FLR_1_SEC_2</text>
  <rect x="  3000" y="   180" width="   200" height="    20" style = "fill:chartreuse; stroke: Black;"/>    91
  <text x="  3002" y="   193">ZN_1_FLR_2_SEC_2</text>
  <rect x="  3000" y="   220" width="   200" height="    20" style = "fill:chartreuse; stroke: Black;"/>    92
  <text x="  3002" y="   233">ZN_1_FLR_3_SEC_2</text>
  <rect x="  3000" y="   260" width="   200" height="    20" style = "fill:chartreuse; stroke: Black;"/>    93
  <text x="  3002" y="   273">ZN_1_FLR_1_SEC_3</text>
  <rect x="  3000" y="   300" width="   200" height="    20" style = "fill:chartreuse; stroke: Black;"/>    94
  <text x="  3002" y="   313">ZN_1_FLR_2_SEC_3</text>
  <rect x="  3000" y="   340" width="   200" height="    20" style = "fill:chartreuse; stroke: Black;"/>    95
  <text x="  3002" y="   353">ZN_1_FLR_3_SEC_3</text>
  <rect x="  3000" y="   380" width="   200" height="    20" style = "fill:chartreuse; stroke: Black;"/>    96
  <text x="  3002" y="   393">ZN_1_FLR_1_SEC_4</text>
  <rect x="  3000" y="   420" width="   200" height="    20" style = "fill:chartreuse; stroke: Black;"/>    97
  <text x="  3002" y="   433">ZN_1_FLR_2_SEC_4</text>
  <rect x="  3000" y="   460" width="   200" height="    20" style = "fill:chartreuse; stroke: Black;"/>    98
  <text x="  3002" y="   473">ZN_1_FLR_3_SEC_4</text>
  <rect x="  3000" y="   500" width="   200" height="    20" style = "fill:chartreuse; stroke: Black;"/>    99
  <text x="  3002" y="   513">ZN_1_FLR_1_SEC_5</text>
  <rect x="  3000" y="   540" width="   200" height="    20" style = "fill:chartreuse; stroke: Black;"/>   100
  <text x="  3002" y="   553">ZN_1_FLR_2_SEC_5</text>
  <rect x="  3000" y="   580" width="   200" height="    20" style = "fill:chartreuse; stroke: Black;"/>   101
  <text x="  3002" y="   593">ZN_1_FLR_3_SEC_5</text>
  <line x1="  2800" y1="   710" x2="  3000" y2="   710" style = "stroke: Black;"/>
  <line x1="  2800" y1="   710" x2="  3000" y2="   750" style = "stroke: Black;"/>
  <line x1="  2800" y1="   710" x2="  3000" y2="   790" style = "stroke: Black;"/>
  <line x1="  2800" y1="   710" x2="  3000" y2="   830" style = "stroke: Black;"/>
  <line x1="  2800" y1="   710" x2="  3000" y2="   870" style = "stroke: Black;"/>
  <line x1="  2800" y1="   710" x2="  3000" y2="   910" style = "stroke: Black;"/>
  <line x1="  2800" y1="   710" x2="  3000" y2="   950" style = "stroke: Black;"/>
  <line x1="  2800" y1="   710" x2="  3000" y2="   990" style = "stroke: Black;"/>
  <line x1="  2800" y1="   710" x2="  3000" y2="  1030" style = "stroke: Black;"/>
  <line x1="  2800" y1="   710" x2="  3000" y2="  1070" style = "stroke: Black;"/>
  <line x1="  2800" y1="   710" x2="  3000" y2="  1110" style = "stroke: Black;"/>
  <line x1="  2800" y1="   710" x2="  3000" y2="  1150" style = "stroke: Black;"/>
  <line x1="  2800" y1="   710" x2="  3000" y2="  1190" style = "stroke: Black;"/>
  <line x1="  2800" y1="   710" x2="  3000" y2="  1230" style = "stroke: Black;"/>
  <line x1="  2800" y1="   710" x2="  3000" y2="  1270" style = "stroke: Black;"/>
  <line x1="  2800" y1="   710" x2="  3000" y2="  1310" style = "stroke: Black;"/>
  <line x1="  2800" y1="   710" x2="  3000" y2="  1350" style = "stroke: Black;"/>
  <line x1="  3600" y1="  1350" x2="  3800" y2="  1350" style = "stroke: Black;"/>
  <line x1="   800" y1="   670" x2="  1000" y2="   670" style = "stroke: Black;"/>
  <line x1="   800" y1="   670" x2="  1000" y2="   710" style = "stroke: Black;"/>
  <line x1="  1600" y1="   710" x2="  1800" y2="   710" style = "stroke: Black;"/>
  <line x1="  2000" y1="    30" x2="  2200" y2="    30" style = "stroke: Black;"/>
  <line x1="  2000" y1="    30" x2="  2200" y2="    70" style = "stroke: Black;"/>
  <line x1="  2000" y1="    30" x2="  2200" y2="   110" style = "stroke: Black;"/>
  <line x1="  2000" y1="    30" x2="  2200" y2="   150" style = "stroke: Black;"/>
  <line x1="  2000" y1="    30" x2="  2200" y2="   190" style = "stroke: Black;"/>
  <line x1="  2000" y1="    30" x2="  2200" y2="   230" style = "stroke: Black;"/>
  <line x1="  2000" y1="    30" x2="  2200" y2="   270" style = "stroke: Black;"/>
  <line x1="  2000" y1="    30" x2="  2200" y2="   310" style = "stroke: Black;"/>
  <line x1="  2000" y1="    30" x2="  2200" y2="   350" style = "stroke: Black;"/>
  <line x1="  2000" y1="    30" x2="  2200" y2="   390" style = "stroke: Black;"/>
  <line x1="  2000" y1="    30" x2="  2200" y2="   430" style = "stroke: Black;"/>
  <line x1="  2000" y1="    30" x2="  2200" y2="   470" style = "stroke: Black;"/>
  <line x1="  2000" y1="    30" x2="  2200" y2="   510" style = "stroke: Black;"/>
  <line x1="  2000" y1="    30" x2="  2200" y2="   550" style = "stroke: Black;"/>
  <line x1="  2000" y1="    30" x2="  2200" y2="   590" style = "stroke: Black;"/>
  <line x1="  2400" y1="    30" x2="  2600" y2="    30" style = "stroke: Black;"/>
  <line x1="  3200" y1="   710" x2="  3400" y2="  1350" style = "stroke: Black;"/>
  <line x1="  2800" y1="    30" x2="  3000" y2="    30" style = "stroke: Black;"/>
  <line x1="  3200" y1="   750" x2="  3400" y2="  1350" style = "stroke: Black;"/>
  <line x1="  2800" y1="    70" x2="  3000" y2="    70" style = "stroke: Black;"/>
  <line x1="  3200" y1="   790" x2="  3400" y2="  1350" style = "stroke: Black;"/>
  <line x1="  2800" y1="   110" x2="  3000" y2="   110" style = "stroke: Black;"/>
  <line x1="  3200" y1="   830" x2="  3400" y2="  1350" style = "stroke: Black;"/>
  <line x1="  2800" y1="   150" x2="  3000" y2="   150" style = "stroke: Black;"/>
  <line x1="  3200" y1="   870" x2="  3400" y2="  1350" style = "stroke: Black;"/>
  <line x1="  2800" y1="   190" x2="  3000" y2="   190" style = "stroke: Black;"/>
  <line x1="  3200" y1="   910" x2="  3400" y2="  1350" style = "stroke: Black;"/>
  <line x1="  2800" y1="   230" x2="  3000" y2="   230" style = "stroke: Black;"/>
  <line x1="  3200" y1="   950" x2="  3400" y2="  1350" style = "stroke: Black;"/>
  <line x1="  2800" y1="   270" x2="  3000" y2="   270" style = "stroke: Black;"/>
  <line x1="  3200" y1="   990" x2="  3400" y2="  1350" style = "stroke: Black;"/>
  <line x1="  2800" y1="   310" x2="  3000" y2="   310" style = "stroke: Black;"/>
  <line x1="  3200" y1="  1030" x2="  3400" y2="  1350" style = "stroke: Black;"/>
  <line x1="  2800" y1="   350" x2="  3000" y2="   350" style = "stroke: Black;"/>
  <line x1="  3200" y1="  1070" x2="  3400" y2="  1350" style = "stroke: Black;"/>
  <line x1="  2800" y1="   390" x2="  3000" y2="   390" style = "stroke: Black;"/>
  <line x1="  3200" y1="  1110" x2="  3400" y2="  1350" style = "stroke: Black;"/>
  <line x1="  2800" y1="   430" x2="  3000" y2="   430" style = "stroke: Black;"/>
  <line x1="  3200" y1="  1150" x2="  3400" y2="  1350" style = "stroke: Black;"/>
  <line x1="  2800" y1="   470" x2="  3000" y2="   470" style = "stroke: Black;"/>
  <line x1="  3200" y1="  1190" x2="  3400" y2="  1350" style = "stroke: Black;"/>
  <line x1="  2800" y1="   510" x2="  3000" y2="   510" style = "stroke: Black;"/>
  <line x1="  3200" y1="  1230" x2="  3400" y2="  1350" style = "stroke: Black;"/>
  <line x1="  2800" y1="   550" x2="  3000" y2="   550" style = "stroke: Black;"/>
  <line x1="  3200" y1="  1270" x2="  3400" y2="  1350" style = "stroke: Black;"/>
  <line x1="  2800" y1="   590" x2="  3000" y2="   590" style = "stroke: Black;"/>
  <line x1="  3200" y1="  1310" x2="  3400" y2="  1350" style = "stroke: Black;"/>
  <line x1="  1200" y1="    30" x2="  1400" y2="    30" style = "stroke: Black;"/>
  <line x1="  2400" y1="    70" x2="  2600" y2="    70" style = "stroke: Black;"/>
  <line x1="  2400" y1="   110" x2="  2600" y2="   110" style = "stroke: Black;"/>
  <line x1="  2400" y1="   150" x2="  2600" y2="   150" style = "stroke: Black;"/>
  <line x1="  2400" y1="   190" x2="  2600" y2="   190" style = "stroke: Black;"/>
  <line x1="  2400" y1="   230" x2="  2600" y2="   230" style = "stroke: Black;"/>
  <line x1="  2400" y1="   270" x2="  2600" y2="   270" style = "stroke: Black;"/>
  <line x1="  2400" y1="   310" x2="  2600" y2="   310" style = "stroke: Black;"/>
  <line x1="  2400" y1="   350" x2="  2600" y2="   350" style = "stroke: Black;"/>
  <line x1="  2400" y1="   390" x2="  2600" y2="   390" style = "stroke: Black;"/>
  <line x1="  2400" y1="   430" x2="  2600" y2="   430" style = "stroke: Black;"/>
  <line x1="  2400" y1="   470" x2="  2600" y2="   470" style = "stroke: Black;"/>
  <line x1="  2400" y1="   510" x2="  2600" y2="   510" style = "stroke: Black;"/>
  <line x1="  2400" y1="   550" x2="  2600" y2="   550" style = "stroke: Black;"/>
  <line x1="  2400" y1="   590" x2="  2600" y2="   590" style = "stroke: Black;"/>
  <line x1="   400" y1="    30" x2="   600" y2="    30" style = "stroke: Black;"/>
  <line x1="   800" y1="    30" x2="  1000" y2="    30" style = "stroke: Black;"/>
  <line x1="  1600" y1="    30" x2="  1800" y2="    30" style = "stroke: Black;"/>
  <line x1="  1200" y1="   710" x2="  1400" y2="   710" style = "stroke: Black;"/>
  <line x1="  2000" y1="   710" x2="  2200" y2="   710" style = "stroke: Black;"/>
  <line x1="  2400" y1="   710" x2="  2600" y2="   710" style = "stroke: Black;"/>
  <line x1="  3200" y1="  1350" x2="  3400" y2="  1350" style = "stroke: Black;"/>
  <line x1="  1200" y1="   670" x2="  1400" y2="   710" style = "stroke: Black;"/>
  <line x1="   400" y1="   670" x2="   600" y2="   670" style = "stroke: Black;"/>
  <line x1="  3200" y1="    30" x2="  3400" y2="   590" style = "stroke: Black;"/>
  <line x1="  3200" y1="    70" x2="  3400" y2="   590" style = "stroke: Black;"/>
  <line x1="  3200" y1="   110" x2="  3400" y2="   590" style = "stroke: Black;"/>
  <line x1="  3200" y1="   150" x2="  3400" y2="   590" style = "stroke: Black;"/>
  <line x1="  3200" y1="   190" x2="  3400" y2="   590" style = "stroke: Black;"/>
  <line x1="  3200" y1="   230" x2="  3400" y2="   590" style = "stroke: Black;"/>
  <line x1="  3200" y1="   270" x2="  3400" y2="   590" style = "stroke: Black;"/>
  <line x1="  3200" y1="   310" x2="  3400" y2="   590" style = "stroke: Black;"/>
  <line x1="  3200" y1="   350" x2="  3400" y2="   590" style = "stroke: Black;"/>
  <line x1="  3200" y1="   390" x2="  3400" y2="   590" style = "stroke: Black;"/>
  <line x1="  3200" y1="   430" x2="  3400" y2="   590" style = "stroke: Black;"/>
  <line x1="  3200" y1="   470" x2="  3400" y2="   590" style = "stroke: Black;"/>
  <line x1="  3200" y1="   510" x2="  3400" y2="   590" style = "stroke: Black;"/>
  <line x1="  3200" y1="   550" x2="  3400" y2="   590" style = "stroke: Black;"/>
  <line x1="  3200" y1="   590" x2="  3400" y2="   590" style = "stroke: Black;"/>
  <line x1="   200" y1="    30" x2="   175" y2="    30" style = "stroke: Black;"/>
  <line x1="   175" y1="    30" x2="   175" y2="     0" style = "stroke: Black;"/>
  <line x1="   175" y1="     0" x2="  3625" y2="     0" style = "stroke: Black;"/>
  <line x1="  3625" y1="     0" x2="  3625" y2="   590" style = "stroke: Black;"/>
  <line x1="  3625" y1="   590" x2="  3600" y2="   590" style = "stroke: Black;"/>
  <line x1="   200" y1="   670" x2="   175" y2="   670" style = "stroke: Black;"/>
  <line x1="   175" y1="   670" x2="   175" y2="   640" style = "stroke: Black;"/>
  <line x1="   175" y1="   640" x2="  4025" y2="   640" style = "stroke: Black;"/>
  <line x1="  4025" y1="   640" x2="  4025" y2="  1350" style = "stroke: Black;"/>
  <line x1="  4025" y1="  1350" x2="  4000" y2="  1350" style = "stroke: Black;"/>
  <text x="   200" y="  1480">Unused Non-Parent Objects:</text>
  <text x="   220" y="  1500">OutdoorAir:Node</text>
  <text x="   220" y="  1520">PVAV_REHEAT_1 SAT SETPOINT</text>
  <text x="   220" y="  1540">HEATSYS1 LOOP SETPOINT MANAGER</text>
  <text x="   220" y="  1560">PVAV_REHEAT_1_COOLC 1 SAT MANAGER</text>
  <text x="   220" y="  1580">PVAV_REHEAT_1_HEATC 1 SAT MANAGER</text>
  <text x="   220" y="  1600">PVAV_REHEAT_1 OA MIXED AIR TEMP MANAGER</text>
  <text x="   220" y="  1620">PVAV_REHEAT_1_HEATC 1_CONTROLLER</text>
  <text x="   220" y="  1640">PVAV_REHEAT_1_OA_CONTROLLER</text>
  <text x="   200" y="  1680">
The following are not supported: objects related to controls, AirTerminal:SingleDuct:Uncontrolled, or ZoneHVAC:IdealLoadsAirSystem</text>
</g>
</svg>
