<?xml version="1.0"?>
<svg width="250mm" height="200mm" viewBox="0 0   2750    1500"
     xmlns="http://www.w3.org/2000/svg"
     xmlns:xlink="http://www.w3.org/1999/xlink"
     xmlns:ev="http://www.w3.org/2001/xml-events">
<g font-family="Verdana" font-size="8" >
  <line x1="   300" y1="   390" x2="   300" y2="   470" style = "stroke:silver  ;"/>
  <line x1="  1050" y1="    30" x2="  1550" y2="   110" style = "stroke:silver  ;"/>
  <line x1="  2050" y1="   230" x2="   800" y2="   110" style = "stroke:silver  ;"/>
  <line x1="  2050" y1="   270" x2="  1050" y2="   110" style = "stroke:silver  ;"/>
  <rect x="   200" y="   380" width="   200" height="    20" style = "fill:snow; stroke: Black;"/>     2
  <text x="   202" y="   393">OutdoorAir:NodeList</text>
  <rect x="   200" y="   460" width="   200" height="    20" style = "fill:snow; stroke: Black;"/>     3
  <text x="   202" y="   473">OutdoorAir:NodeList</text>
  <rect x="  1700" y="   220" width="   200" height="    20" style = "fill:wheat; stroke: Black;"/>     7
  <text x="  1702" y="   233">CONDENSER DEMAND SPLITTER</text>
  <rect x="  2200" y="   300" width="   200" height="    20" style = "fill:wheat; stroke: Black;"/>     8
  <text x="  2202" y="   313">CONDENSER DEMAND MIXER</text>
  <rect x="   450" y="   180" width="   200" height="    20" style = "fill:wheat; stroke: Black;"/>     9
  <text x="   452" y="   193">CONDENSER SUPPLY SPLITTER</text>
  <rect x="   950" y="   220" width="   200" height="    20" style = "fill:wheat; stroke: Black;"/>    10
  <text x="   952" y="   233">CONDENSER SUPPLY MIXER</text>
  <rect x="   950" y="    20" width="   200" height="    20" style = "fill:chartreuse; stroke: Black;"/>    11
  <text x="   952" y="    33">SPACE1-1</text>
  <rect x="   700" y="    20" width="   200" height="    20" style = "fill:wheat; stroke: Black;"/>    12
  <text x="   702" y="    33">ZONE SUPPLY AIR SPLITTER</text>
  <rect x="   200" y="    20" width="   200" height="    20" style = "fill:lawngreen; stroke: Black;"/>    13
  <text x="   202" y="    33">OA MIXING BOX 1</text>
  <rect x="   200" y="   100" width="   200" height="    20" style = "fill:lawngreen; stroke: Black;"/>    14
  <text x="   202" y="   113">ZONE 1 MIXER</text>
  <rect x="   450" y="    20" width="   200" height="    20" style = "fill:silver; stroke: Black;"/>    15
  <text x="   452" y="    33">SUPPLY FAN 1</text>
  <rect x="   450" y="   100" width="   200" height="    20" style = "fill:silver; stroke: Black;"/>    16
  <text x="   452" y="   113">ZONE 1 FAN</text>
  <rect x="  1950" y="   220" width="   200" height="    20" style = "fill:skyblue; stroke: Black;"/>    17
  <text x="  1952" y="   233">SYS 1 HEAT PUMP COOLING MODE</text>
  <rect x="   700" y="   100" width="   200" height="    20" style = "fill:skyblue; stroke: Black;"/>    18
  <text x="   702" y="   113">SYS 1 HEAT PUMP COOLING MODE</text>
  <rect x="  1950" y="   260" width="   200" height="    20" style = "fill:salmon; stroke: Black;"/>    19
  <text x="  1952" y="   273">SYS 1 HEAT PUMP HEATING MODE</text>
  <rect x="   950" y="   100" width="   200" height="    20" style = "fill:salmon; stroke: Black;"/>    20
  <text x="   952" y="   113">SYS 1 HEAT PUMP HEATING MODE</text>
  <rect x="  1200" y="   100" width="   200" height="    20" style = "fill:salmon; stroke: Black;"/>    21
  <text x="  1202" y="   113">HEAT PUMP DX SUPP HEATING COIL 1</text>
  <rect x="  1200" y="    20" width="   200" height="    20" style = "fill:wheat; stroke: Black;"/>    23
  <text x="  1202" y="    33">ZONE RETURN AIR MIXER</text>
  <rect x="   700" y="   220" width="   200" height="    20" style = "fill:wheat; stroke: Black;"/>    25
  <text x="   702" y="   233">CONDENSER SUPPLY SIDE BYPASS</text>
  <rect x="  1200" y="   220" width="   200" height="    20" style = "fill:wheat; stroke: Black;"/>    26
  <text x="  1202" y="   233">CONDENSER SUPPLY OUTLET</text>
  <rect x="  1450" y="   220" width="   200" height="    20" style = "fill:wheat; stroke: Black;"/>    27
  <text x="  1452" y="   233">CONDENSER DEMAND INLET PIPE</text>
  <rect x="  1950" y="   300" width="   200" height="    20" style = "fill:wheat; stroke: Black;"/>    28
  <text x="  1952" y="   313">CONDENSER DEMAND SIDE BYPASS</text>
  <rect x="  2450" y="   300" width="   200" height="    20" style = "fill:wheat; stroke: Black;"/>    29
  <text x="  2452" y="   313">CONDENSER DEMAND OUTLET PIPE</text>
  <rect x="   700" y="   180" width="   200" height="    20" style = "fill:paleturquoise; stroke: Black;"/>    30
  <text x="   702" y="   193">VERTICAL GROUND HEAT EXCHANGER</text>
  <rect x="   200" y="   180" width="   200" height="    20" style = "fill:springgreen; stroke: Black;"/>    31
  <text x="   202" y="   193">COND CIRC PUMP</text>
  <rect x="  1450" y="   100" width="   200" height="    20" style = "fill:chartreuse; stroke: Black;"/>    32
  <text x="  1452" y="   113">SPACE1-1</text>
  <line x1="  1900" y1="   230" x2="  1950" y2="   230" style = "stroke: Black;"/>
  <line x1="  1900" y1="   230" x2="  1950" y2="   270" style = "stroke: Black;"/>
  <line x1="  1900" y1="   230" x2="  1950" y2="   310" style = "stroke: Black;"/>
  <line x1="  2400" y1="   310" x2="  2450" y2="   310" style = "stroke: Black;"/>
  <line x1="   650" y1="   190" x2="   700" y2="   190" style = "stroke: Black;"/>
  <line x1="   650" y1="   190" x2="   700" y2="   230" style = "stroke: Black;"/>
  <line x1="  1150" y1="   230" x2="  1200" y2="   230" style = "stroke: Black;"/>
  <line x1="   900" y1="    30" x2="   950" y2="    30" style = "stroke: Black;"/>
  <line x1="   400" y1="    30" x2="   450" y2="    30" style = "stroke: Black;"/>
  <line x1="   400" y1="   110" x2="   450" y2="   110" style = "stroke: Black;"/>
  <line x1="   650" y1="    30" x2="   700" y2="    30" style = "stroke: Black;"/>
  <line x1="   650" y1="   110" x2="   700" y2="   110" style = "stroke: Black;"/>
  <line x1="  2150" y1="   230" x2="  2200" y2="   310" style = "stroke: Black;"/>
  <line x1="   900" y1="   110" x2="   950" y2="   110" style = "stroke: Black;"/>
  <line x1="  2150" y1="   270" x2="  2200" y2="   310" style = "stroke: Black;"/>
  <line x1="  1150" y1="   110" x2="  1200" y2="   110" style = "stroke: Black;"/>
  <line x1="  1400" y1="   110" x2="  1450" y2="   110" style = "stroke: Black;"/>
  <line x1="   900" y1="   230" x2="   950" y2="   230" style = "stroke: Black;"/>
  <line x1="  1400" y1="   230" x2="  1450" y2="   230" style = "stroke: Black;"/>
  <line x1="  1650" y1="   230" x2="  1700" y2="   230" style = "stroke: Black;"/>
  <line x1="  2150" y1="   310" x2="  2200" y2="   310" style = "stroke: Black;"/>
  <line x1="   900" y1="   190" x2="   950" y2="   230" style = "stroke: Black;"/>
  <line x1="   400" y1="   190" x2="   450" y2="   190" style = "stroke: Black;"/>
  <line x1="  1150" y1="    30" x2="  1200" y2="    30" style = "stroke: Black;"/>
  <line x1="   200" y1="    30" x2="   175" y2="    30" style = "stroke: Black;"/>
  <line x1="   175" y1="    30" x2="   175" y2="     0" style = "stroke: Black;"/>
  <line x1="   175" y1="     0" x2="  1425" y2="     0" style = "stroke: Black;"/>
  <line x1="  1425" y1="     0" x2="  1425" y2="    30" style = "stroke: Black;"/>
  <line x1="  1425" y1="    30" x2="  1400" y2="    30" style = "stroke: Black;"/>
  <line x1="   200" y1="   110" x2="   175" y2="   110" style = "stroke: Black;"/>
  <line x1="   175" y1="   110" x2="   175" y2="    80" style = "stroke: Black;"/>
  <line x1="   175" y1="    80" x2="  1675" y2="    80" style = "stroke: Black;"/>
  <line x1="  1675" y1="    80" x2="  1675" y2="   110" style = "stroke: Black;"/>
  <line x1="  1675" y1="   110" x2="  1650" y2="   110" style = "stroke: Black;"/>
  <line x1="   200" y1="   190" x2="   175" y2="   190" style = "stroke: Black;"/>
  <line x1="   175" y1="   190" x2="   175" y2="   160" style = "stroke: Black;"/>
  <line x1="   175" y1="   160" x2="  2675" y2="   160" style = "stroke: Black;"/>
  <line x1="  2675" y1="   160" x2="  2675" y2="   310" style = "stroke: Black;"/>
  <line x1="  2675" y1="   310" x2="  2650" y2="   310" style = "stroke: Black;"/>
  <text x="   200" y="   520">Unused Non-Parent Objects:</text>
  <text x="   220" y="   540">SUPPLY AIR TEMP MANAGER 1</text>
  <text x="   220" y="   560">MIXED AIR TEMP MANAGER 1</text>
  <text x="   220" y="   580">MYCONDENSERCONTROL</text>
  <text x="   220" y="   600">ZONE1WTAHP</text>
  <text x="   220" y="   620">OA CONTROLLER 1</text>
  <text x="   200" y="   660">
The following are not supported: objects related to controls, AirTerminal:SingleDuct:Uncontrolled, or ZoneHVAC:IdealLoadsAirSystem</text>
</g>
</svg>
